<svg width="78" height="100" viewBox="0 0 78 100" fill="none" xmlns="http://www.w3.org/2000/svg">
<rect x="26.1611" y="62.8887" width="25.752" height="25.752" transform="rotate(-90 26.1611 62.8887)" fill="#F6C846"/>
<path d="M77.86 51.3487C77.8695 54.3715 77.8763 57.4349 77.8773 60.4576C77.8806 71.3806 77.8786 82.3035 77.8785 93.2265C77.8785 96.0756 76.5532 98.4108 73.9582 99.6634C73.7631 99.761 72.6389 99.9539 72.495 99.956C69.0441 100.007 67.1744 100.01 63.6183 99.9561C63.6183 99.2733 63.6183 99.1332 63.6183 98.5904C63.6185 90.3722 63.6421 82.1795 63.6649 73.9614C63.6672 73.113 63.3997 72.4886 62.8008 71.8984C60.0245 69.1625 57.2629 66.4109 54.5431 63.6192C54.1845 63.2511 53.9202 62.6229 53.9111 62.1099C53.8544 58.8951 53.9096 55.6784 53.8642 52.4632C53.8522 51.6152 54.0853 51.3432 54.9555 51.354C58.6256 51.3991 62.2965 51.3783 65.9671 51.3715C69.8644 51.3644 73.7618 51.3459 77.7062 51.3487C77.7856 51.3732 77.8278 51.3406 77.86 51.3487Z" fill="#F6C846"/>
<path d="M0.0185699 51.3783C0.00905609 54.4011 0.00271797 57.4349 0.00180054 60.4576C-0.00152779 71.3806 0.000444412 82.3035 0.000514984 93.2265C0.00053215 96.0755 1.32589 98.4108 3.92089 99.6634C4.11598 99.761 5.24016 99.956 5.38407 99.956C8.79769 99.956 10.7486 99.956 14.2607 99.9561C14.2607 99.2732 14.2607 99.1332 14.2607 98.5904C14.2605 90.3722 14.283 82.2271 14.2602 74.0089C14.2579 73.1606 14.5393 72.5506 15.1382 71.9605C17.9145 69.2245 20.7918 66.4503 23.4295 63.6691C23.7881 63.301 24.0058 62.6213 24.0149 62.1083C24.0716 58.8935 24.0148 54.5855 24.0148 51.3783C24.0148 51.3783 23.838 51.4027 22.9418 51.3783C19.2718 51.4235 15.5826 51.3782 11.912 51.3715C8.01464 51.3644 4.15812 51.278 0.213659 51.2808C0.134327 51.3053 0.0508022 51.3702 0.0185699 51.3783Z" fill="#F6C846"/>
<path d="M61.2775 99.9561C54.3802 99.9561 47.426 99.956 40.5003 99.9561C40.3976 96.2321 40.4007 92.5081 40.4031 88.8753C40.4084 80.9935 40.4185 73.1117 40.4626 65.2082C40.5438 65.1535 40.5832 65.1144 40.7082 65.0622C44.3704 65.0515 47.9412 65.0303 51.5114 65.0676C51.9419 65.0721 52.4719 65.2863 52.7815 65.5844C55.3982 68.1038 57.997 70.6431 60.5394 73.237C60.9399 73.6457 61.227 74.3564 61.2331 74.931C61.2864 79.9618 61.2594 84.9935 61.2656 90.0249C61.2698 93.3353 61.2647 96.6457 61.2775 99.9561Z" fill="#F6C846"/>
<path d="M37.8335 99.9561C30.9362 99.9561 23.9704 100.047 16.9918 99.9561C16.9143 91.5789 16.8563 83.173 16.8942 74.8869C16.8966 74.3642 17.1284 73.6887 17.4795 73.3262C20.0338 70.6888 22.5782 68.0059 25.2832 65.5225C25.5716 65.2397 26.1329 65.0705 26.5315 65.0673C30.2353 65.0378 33.9444 64.9966 37.6715 65.0348C37.7276 65.1011 37.7606 65.1988 37.8111 65.3168C37.8242 76.9242 37.8288 88.4402 37.8335 99.9561Z" fill="#F6C846"/>
<path d="M77.8601 48.647C77.8696 45.6243 77.8951 42.5631 77.8961 39.5404C77.8994 28.6175 77.8974 17.6945 77.8973 6.77153C77.8973 3.92249 76.572 1.58726 73.977 0.334611C73.7819 0.237036 72.6577 0.044142 72.5138 0.0419992C69.0629 -0.00939003 67.1932 -0.0120739 63.6371 0.041976C63.6371 0.724786 63.6371 0.864846 63.6371 1.40761C63.6373 9.62583 63.6609 17.8185 63.6837 26.0367C63.686 26.885 63.4185 27.5095 62.8196 28.0996C60.0433 30.8356 57.2817 33.5871 54.5619 36.3789C54.2033 36.747 53.939 37.3751 53.9299 37.8881C53.8732 41.1029 53.9284 44.3196 53.883 47.5348C53.871 48.3828 54.1041 48.6548 54.9743 48.6441C58.6444 48.5989 62.3153 48.6198 65.9859 48.6265C69.8832 48.6337 73.7806 48.6521 77.725 48.6493C77.7626 48.647 77.8279 48.6552 77.8601 48.647Z" fill="#F6C846"/>
<path d="M0.0373688 48.6197C0.0278549 45.597 0.0215168 42.5632 0.0205994 39.5404C0.017271 28.6175 0.0192432 17.6945 0.0193138 6.77155C0.019331 3.9225 1.34469 1.58727 3.93968 0.334627C4.13478 0.237053 5.25896 0.0420153 5.40287 0.0420154C8.81649 0.0420181 10.7674 0.0420127 14.2795 0.0419922C14.2795 0.724802 14.2795 0.864862 14.2795 1.40763C14.2793 9.62585 14.3018 17.771 14.279 25.9891C14.2767 26.8375 14.5581 27.4474 15.157 28.0376C17.9333 30.7735 20.8106 33.5478 23.4483 36.329C23.8069 36.6971 24.0246 37.3767 24.0337 37.8897C24.0904 41.1045 24.0336 45.4126 24.0336 48.6197C24.0336 48.6197 23.8568 48.5953 22.9606 48.6197C19.2906 48.5746 15.6014 48.6198 11.9308 48.6265C8.03343 48.6337 4.17692 48.7201 0.232458 48.7173C0.153126 48.6928 0.0696011 48.6278 0.0373688 48.6197Z" fill="#F6C846"/>
<path d="M61.296 0.0419922C54.3987 0.0419922 47.4446 0.0420081 40.5188 0.0419922C40.4162 3.76596 40.4193 7.48994 40.4217 11.1228C40.4269 19.0046 40.4371 26.8863 40.4811 34.7898C40.5624 34.8446 40.6018 34.8837 40.7268 34.9359C44.3889 34.9465 47.9598 34.9678 51.53 34.9305C51.9604 34.926 52.4905 34.7117 52.8001 34.4137C55.4168 31.8943 58.0156 29.3549 60.558 26.761C60.9585 26.3524 61.2455 25.6416 61.2516 25.0671C61.305 20.0362 61.2779 15.0045 61.2842 9.97312C61.2883 6.66274 61.2833 3.35236 61.296 0.0419922Z" fill="#F6C846"/>
<path d="M37.852 0.0419072C30.9547 0.0419072 23.9889 -0.0490863 17.0103 0.0419045C16.9328 8.41915 16.8749 16.825 16.9128 25.1111C16.9152 25.6338 17.1469 26.3093 17.4981 26.6719C20.0523 29.3092 22.5968 31.9921 25.3017 34.4755C25.5901 34.7584 26.1515 34.9275 26.55 34.9307C30.2539 34.9602 33.963 35.0015 37.69 34.9632C37.7462 34.897 37.7791 34.7992 37.8297 34.6812C37.8428 23.0739 37.8474 11.5579 37.852 0.0419072Z" fill="#F6C846"/>
</svg>
