<svg width="80" height="69" viewBox="0 0 80 69" fill="none" xmlns="http://www.w3.org/2000/svg">
<path d="M33.7277 14.9116C33.7277 14.9116 36.3768 13.7074 38.0626 15.634C39.7485 17.5607 44.0834 25.0265 44.0834 32.492C44.0834 39.9578 42.1567 47.9052 40.2301 50.5543C38.3034 53.2036 36.3768 53.2036 34.9318 52.2402C33.4867 51.2769 11.0895 34.1779 9.88552 33.6963C8.68129 33.2147 8.19968 34.4187 9.4037 40.9213C10.6079 47.4236 8.68129 49.3503 6.99544 49.5911C5.3096 49.8319 0.252275 48.3869 0.01147 34.9005C-0.229335 21.414 3.38295 19.2465 5.06879 19.2465C8.23651 19.2465 32.2888 40.9604 33.9685 40.6805C35.4134 40.4395 36.136 31.288 33.2459 24.063C30.1167 16.24 33.7277 14.9116 33.7277 14.9116ZM72.4409 1.42506C80.5306 17.4895 80.0368 32.6792 79.9724 34.2823C80.0368 35.6789 80.5306 50.889 72.4409 66.9532C72.4409 66.9532 70.3339 69.3617 67.203 67.9167C64.0723 66.4718 65.1559 62.6186 65.1559 62.6186C65.1559 62.6186 71.7111 49.9628 71.5379 34.4187L71.541 34.1779C71.7111 18.6317 65.1559 5.75997 65.1559 5.75997C65.1559 5.75997 64.0723 1.90667 67.203 0.461633C70.3339 -0.983197 72.4409 1.42506 72.4409 1.42506ZM56.7515 8.65005C63.3497 20.6913 62.9024 32.6792 62.838 34.2823C62.9024 35.6789 63.3497 47.1828 56.7604 60.1987C56.7604 60.1987 54.6533 62.6072 51.5225 61.1621C48.3916 59.7173 49.4754 55.864 49.4754 55.864C49.4754 55.864 53.7166 49.8319 54.4035 34.4187L54.4066 34.1779C53.9575 18.7647 49.4666 12.985 49.4666 12.985C49.4666 12.985 48.3827 9.13166 51.5136 7.68662C54.6445 6.24158 56.7515 8.65005 56.7515 8.65005Z" fill="white" fill-opacity="0.2"/>
</svg>
