<svg xmlns="http://www.w3.org/2000/svg" version="1.1" xmlns:xlink="http://www.w3.org/1999/xlink" xmlns:svgjs="http://svgjs.com/svgjs" width="512" height="512" x="0" y="0" viewBox="0 0 512 512" style="enable-background:new 0 0 512 512" xml:space="preserve" class=""><g><path d="M488 56H24C10.745 56 0 66.745 0 80v352c0 13.255 10.745 24 24 24h464c13.255 0 24-10.745 24-24V80c0-13.255-10.745-24-24-24zM64 336c0 13.255-10.745 24-24 24s-24-10.745-24-24V176c0-13.255 10.745-24 24-24s24 10.745 24 24zm144-20c0 24.262-19.738 44-44 44h-32c-24.262 0-44-19.738-44-44V196c0-24.262 19.738-44 44-44h32c24.262 0 44 19.738 44 44zm144 0c0 24.262-19.738 44-44 44h-32c-24.262 0-44-19.738-44-44V196c0-24.262 19.738-44 44-44h32c24.262 0 44 19.738 44 44zm144 0c0 24.262-19.738 44-44 44h-32c-24.262 0-44-19.738-44-44V196c0-24.262 19.738-44 44-44h32c24.262 0 44 19.738 44 44z" fill="#ffffff" data-original="#000000" opacity="1" class=""></path><path d="M285 232h14a5 5 0 0 0 5-5v-22a5 5 0 0 0-5-5h-14a5 5 0 0 0-5 5v22a5 5 0 0 0 5 5zM141 312h14a5 5 0 0 0 5-5V205a5 5 0 0 0-5-5h-14a5 5 0 0 0-5 5v102a5 5 0 0 0 5 5zM285 312h14a5 5 0 0 0 5-5v-22a5 5 0 0 0-5-5h-14a5 5 0 0 0-5 5v22a5 5 0 0 0 5 5zM429 312h14a5 5 0 0 0 5-5V205a5 5 0 0 0-5-5h-14a5 5 0 0 0-5 5v102a5 5 0 0 0 5 5z" fill="#ffffff" data-original="#000000" opacity="1" class=""></path></g></svg>