<svg xmlns="http://www.w3.org/2000/svg" version="1.1" xmlns:xlink="http://www.w3.org/1999/xlink" xmlns:svgjs="http://svgjs.com/svgjs" width="512" height="512" x="0" y="0" viewBox="0 0 512 512" style="enable-background:new 0 0 512 512" xml:space="preserve" class=""><g><path d="M488 56H24C10.745 56 0 66.745 0 80v352c0 13.255 10.745 24 24 24h464c13.255 0 24-10.745 24-24V80c0-13.255-10.745-24-24-24zM240 336c0 13.1-10.495 23.748-23.536 23.996-13.453.255-24.464-11.081-24.464-24.536V285a5 5 0 0 0-5-5h-43c-13.255 0-24-10.745-24-24v-79.46c0-13.455 11.011-24.791 24.464-24.536C157.505 152.252 168 162.9 168 176v51a5 5 0 0 0 5 5h14a5 5 0 0 0 5-5v-50.46c0-13.455 11.011-24.791 24.464-24.536C229.505 152.252 240 162.9 240 176zm109.255-68.687 51.716 51.716c9.373 9.373 9.373 24.568 0 33.941-4.687 4.687-10.829 7.03-16.971 7.03s-12.284-2.343-16.971-7.029l-38.494-38.494c-3.15-3.15-8.536-.919-8.536 3.536v17.447c0 13.455-11.011 24.791-24.464 24.536C282.495 359.748 272 349.1 272 336V176.54c0-13.455 11.011-24.791 24.464-24.536C309.505 152.252 320 162.9 320 176v17.988c0 4.455 5.386 6.685 8.536 3.536l38.112-38.112c9.515-9.515 25.317-9.744 34.649-.05 9.046 9.396 8.937 24.346-.326 33.61l-51.716 51.716c-3.022 3.021-4.687 7.04-4.687 11.313s1.665 8.291 4.687 11.312z" fill="#ffffff" data-original="#000000" opacity="1" class=""></path></g></svg>