<svg xmlns="http://www.w3.org/2000/svg" version="1.1" xmlns:xlink="http://www.w3.org/1999/xlink" xmlns:svgjs="http://svgjs.com/svgjs" width="512" height="512" x="0" y="0" viewBox="0 0 512 512" style="enable-background:new 0 0 512 512" xml:space="preserve" class=""><g><path d="M488 56H24C10.745 56 0 66.745 0 80v352c0 13.255 10.745 24 24 24h464c13.255 0 24-10.745 24-24V80c0-13.255-10.745-24-24-24zM176 336c0 13.1-10.495 23.748-23.536 23.996-13.453.255-24.464-11.081-24.464-24.536V205a5 5 0 0 0-5-5H72.54c-13.455 0-24.791-11.011-24.536-24.464C48.252 162.495 58.9 152 72 152h80c13.255 0 24 10.745 24 24zm144-80c0 13.255-10.745 24-24 24h-43a5 5 0 0 0-5 5v22a5 5 0 0 0 5 5h42.46c13.455 0 24.791 11.011 24.536 24.464C319.748 349.505 309.1 360 296 360h-72c-13.255 0-24-10.745-24-24v-80c0-13.255 10.745-24 24-24h43a5 5 0 0 0 5-5v-22a5 5 0 0 0-5-5h-42.46c-13.455 0-24.791-11.011-24.536-24.464C200.252 162.495 210.9 152 224 152h72c13.255 0 24 10.745 24 24zm144 60c0 24.262-19.738 44-44 44h-32c-24.262 0-44-19.738-44-44V196c0-24.262 19.738-44 44-44h32c24.262 0 44 19.738 44 44z" fill="#ffffff" data-original="#000000" opacity="1" class=""></path><path d="M397 312h14a5 5 0 0 0 5-5V205a5 5 0 0 0-5-5h-14a5 5 0 0 0-5 5v102a5 5 0 0 0 5 5z" fill="#ffffff" data-original="#000000" opacity="1" class=""></path></g></svg>