<svg xmlns="http://www.w3.org/2000/svg" version="1.1" xmlns:xlink="http://www.w3.org/1999/xlink" xmlns:svgjs="http://svgjs.com/svgjs" width="512" height="512" x="0" y="0" viewBox="0 0 24 24" style="enable-background:new 0 0 512 512" xml:space="preserve" class=""><g><path d="M3 20c-.6 0-1-.4-1-1s.4-1 1-1 1 .4 1 1-.4 1-1 1zM7 20c-.6 0-1-.4-1-1 0-.8-.3-1.6-.9-2.1-.5-.6-1.3-.9-2.1-.9-.6 0-1-.4-1-1s.4-1 1-1c1.3 0 2.6.5 3.5 1.5 1 .9 1.5 2.2 1.5 3.5 0 .6-.4 1-1 1z" fill="#ffffff" data-original="#000000" class="" opacity="1"></path><path d="M11 20c-.6 0-1-.4-1-1 0-1.9-.7-3.6-2.1-5-1.3-1.3-3.1-2-4.9-2-.6 0-1-.4-1-1s.4-1 1-1c2.4 0 4.7.9 6.4 2.6s2.6 4 2.6 6.4c0 .6-.4 1-1 1z" fill="#ffffff" data-original="#000000" class="" opacity="1"></path><path d="M18 20h-3c-.6 0-1-.4-1-1s.4-1 1-1h3c.5 0 1-.2 1.4-.6s.6-.9.6-1.4V8c0-.5-.2-1-.6-1.4S18.5 6 18 6H6c-.4 0-.8.1-1.1.4-.3.2-.6.6-.7 1-.2.5-.8.7-1.3.5-.6-.1-.8-.7-.6-1.2.2-.8.7-1.5 1.4-2C4.4 4.3 5.2 4 6 4h12c1.1 0 2.1.4 2.8 1.2.8.7 1.2 1.7 1.2 2.8v8c0 1.1-.4 2.1-1.2 2.8S19.1 20 18 20z" fill="#ffffff" data-original="#000000" class="" opacity="1"></path></g></svg>