<svg xmlns="http://www.w3.org/2000/svg" version="1.1" xmlns:xlink="http://www.w3.org/1999/xlink" xmlns:svgjs="http://svgjs.com/svgjs" width="512" height="512" x="0" y="0" viewBox="0 0 24 24" style="enable-background:new 0 0 512 512" xml:space="preserve" class=""><g><path d="M3 9a1 1 0 0 0 2 0V6a1 1 0 0 1 1-1h3a1 1 0 0 0 0-2H6a3 3 0 0 0-3 3zM21 6a3 3 0 0 0-3-3h-3a1 1 0 0 0 0 2h3a1 1 0 0 1 1 1v3a1 1 0 0 0 2 0zM3 18a3 3 0 0 0 3 3h3a1 1 0 0 0 0-2H6a1 1 0 0 1-1-1v-3a1 1 0 0 0-2 0zM20 14a1 1 0 0 0-1 1v3a1 1 0 0 1-1 1h-3a1 1 0 0 0 0 2h3a3 3 0 0 0 3-3v-3a1 1 0 0 0-1-1z" fill="#ffffff" data-original="#000000" opacity="1"></path></g></svg>