<svg xmlns="http://www.w3.org/2000/svg" version="1.1" xmlns:xlink="http://www.w3.org/1999/xlink" xmlns:svgjs="http://svgjs.com/svgjs" width="512" height="512" x="0" y="0" viewBox="0 0 682.667 682.667" style="enable-background:new 0 0 512 512" xml:space="preserve" class=""><g><defs><clipPath id="a" clipPathUnits="userSpaceOnUse"><path d="M0 512h512V0H0Z" fill="#000000" data-original="#000000"></path></clipPath></defs><g clip-path="url(#a)" transform="matrix(1.33333 0 0 -1.33333 0 682.667)"><path d="M0 0v297.979c0 16.568 13.431 30 30 30h388c16.569 0 30-13.432 30-30V0Z" style="fill-opacity:1;fill-rule:nonzero;stroke:none" transform="translate(31.997 66.07)" fill="#ffd1a1" data-original="#c9f3ff" class="" opacity="1"></path><path d="M439.997 354.055h-368V106.062h368z" style="fill-opacity:1;fill-rule:nonzero;stroke:none" fill="#ffffff" data-original="#ffffff" class=""></path><path d="M0 0h177.858v-18.254C177.858-39.1 160.959-56 140.112-56h-416.507c-20.847 0-37.747 16.9-37.747 37.746V0h177.847z" style="fill-opacity:1;fill-rule:nonzero;stroke:none" transform="translate(324.142 66.07)" fill="#dfa05e" data-original="#4dbaf6" class="" opacity="1"></path><path d="M0 0v-261.824h-448V36.155c0 16.569 13.431 30 30 30h49.003m44.667 0v0" style="stroke-width:20;stroke-linecap:round;stroke-linejoin:round;stroke-miterlimit:10;stroke-dasharray:none;stroke-opacity:1" transform="translate(479.997 327.893)" fill="none" stroke="#000000" stroke-width="20" stroke-linecap="round" stroke-linejoin="round" stroke-miterlimit="10" stroke-dasharray="none" stroke-opacity="" data-original="#000000" class=""></path><path d="M0 0h177.858v0-18.254C177.858-39.1 160.959-56 140.112-56h-416.507c-20.847 0-37.747 16.9-37.747 37.746V0h177.847z" style="stroke-width:20;stroke-linecap:round;stroke-linejoin:round;stroke-miterlimit:10;stroke-dasharray:none;stroke-opacity:1" transform="translate(324.142 66.07)" fill="none" stroke="#000000" stroke-width="20" stroke-linecap="round" stroke-linejoin="round" stroke-miterlimit="10" stroke-dasharray="none" stroke-opacity="" data-original="#000000" class=""></path><path d="M0 0c17.877 0 32.368 14.492 32.368 32.368v110.076c0 17.876-14.491 32.368-32.368 32.368h-240.404c-17.876 0-32.368-14.492-32.368-32.368V32.368C-272.772 14.492-258.28 0-240.404 0Z" style="fill-opacity:1;fill-rule:nonzero;stroke:none" transform="translate(469.632 327.188)" fill="#6643b8" data-original="#fe8f8d" class="" opacity="1"></path><path d="M0 0h57.298c17.877 0 32.369 14.492 32.369 32.368v110.076c0 17.876-14.492 32.368-32.369 32.368h-240.403c-17.877 0-32.369-14.492-32.369-32.368V32.368C-215.474 14.492-200.982 0-183.105 0h116.438z" style="stroke-width:20;stroke-linecap:round;stroke-linejoin:round;stroke-miterlimit:10;stroke-dasharray:none;stroke-opacity:1" transform="translate(412.333 327.188)" fill="none" stroke="#000000" stroke-width="20" stroke-linecap="round" stroke-linejoin="round" stroke-miterlimit="10" stroke-dasharray="none" stroke-opacity="" data-original="#000000" class=""></path><path d="M0 0h-124.863v-247.993h368v221.125" style="stroke-width:20;stroke-linecap:round;stroke-linejoin:round;stroke-miterlimit:10;stroke-dasharray:none;stroke-opacity:1" transform="translate(196.86 354.055)" fill="none" stroke="#000000" stroke-width="20" stroke-linecap="round" stroke-linejoin="round" stroke-miterlimit="10" stroke-dasharray="none" stroke-opacity="" data-original="#000000" class=""></path><path d="M0 0v-53.578" style="stroke-width:20;stroke-linecap:round;stroke-linejoin:round;stroke-miterlimit:10;stroke-dasharray:none;stroke-opacity:1" transform="translate(391.997 226.578)" fill="none" stroke="#000000" stroke-width="20" stroke-linecap="round" stroke-linejoin="round" stroke-miterlimit="10" stroke-dasharray="none" stroke-opacity="" data-original="#000000" class=""></path><path d="M0 0v0" style="stroke-width:20;stroke-linecap:round;stroke-linejoin:round;stroke-miterlimit:10;stroke-dasharray:none;stroke-opacity:1" transform="translate(391.997 267.525)" fill="none" stroke="#000000" stroke-width="20" stroke-linecap="round" stroke-linejoin="round" stroke-miterlimit="10" stroke-dasharray="none" stroke-opacity="" data-original="#000000" class=""></path><path d="m0 0-59.739-38.291c-8.863-5.681-20.503.684-20.503 11.212v76.581c0 10.527 11.64 16.892 20.503 11.211L0 22.423C8.174 17.183 8.174 5.239 0 0" style="fill-opacity:1;fill-rule:nonzero;stroke:none" transform="translate(300.37 208.106)" fill="#6643b8" data-original="#ff5d5d" class="" opacity="1"></path><path d="m0 0-59.739-38.291c-8.863-5.681-20.503.684-20.503 11.212v76.581c0 10.527 11.64 16.892 20.503 11.211L0 22.423C8.174 17.183 8.174 5.239 0 0Z" style="stroke-width:20;stroke-linecap:round;stroke-linejoin:round;stroke-miterlimit:10;stroke-dasharray:none;stroke-opacity:1" transform="translate(300.37 208.106)" fill="none" stroke="#000000" stroke-width="20" stroke-linecap="round" stroke-linejoin="round" stroke-miterlimit="10" stroke-dasharray="none" stroke-opacity="" data-original="#000000" class=""></path><path d="M0 0h-28v72" style="stroke-width:20;stroke-linecap:round;stroke-linejoin:round;stroke-miterlimit:10;stroke-dasharray:none;stroke-opacity:1" transform="translate(272.65 378)" fill="none" stroke="#000000" stroke-width="20" stroke-linecap="round" stroke-linejoin="round" stroke-miterlimit="10" stroke-dasharray="none" stroke-opacity="" data-original="#000000" class=""></path><path d="M0 0h-28v72H0" style="stroke-width:20;stroke-linecap:round;stroke-linejoin:round;stroke-miterlimit:10;stroke-dasharray:none;stroke-opacity:1" transform="translate(459.65 378)" fill="none" stroke="#000000" stroke-width="20" stroke-linecap="round" stroke-linejoin="round" stroke-miterlimit="10" stroke-dasharray="none" stroke-opacity="" data-original="#000000" class=""></path><path d="m0 0-25-72-25 72" style="stroke-width:20;stroke-linecap:round;stroke-linejoin:round;stroke-miterlimit:10;stroke-dasharray:none;stroke-opacity:1" transform="translate(392.818 450)" fill="none" stroke="#000000" stroke-width="20" stroke-linecap="round" stroke-linejoin="round" stroke-miterlimit="10" stroke-dasharray="none" stroke-opacity="" data-original="#000000" class=""></path><path d="M0 0v72" style="stroke-width:20;stroke-linecap:round;stroke-linejoin:round;stroke-miterlimit:10;stroke-dasharray:none;stroke-opacity:1" transform="translate(308.983 378)" fill="none" stroke="#000000" stroke-width="20" stroke-linecap="round" stroke-linejoin="round" stroke-miterlimit="10" stroke-dasharray="none" stroke-opacity="" data-original="#000000" class=""></path><path d="M0 0h17.333" style="stroke-width:20;stroke-linecap:round;stroke-linejoin:round;stroke-miterlimit:10;stroke-dasharray:none;stroke-opacity:1" transform="translate(431.65 414)" fill="none" stroke="#000000" stroke-width="20" stroke-linecap="round" stroke-linejoin="round" stroke-miterlimit="10" stroke-dasharray="none" stroke-opacity="" data-original="#000000" class=""></path></g></g></svg>