<svg xmlns="http://www.w3.org/2000/svg" version="1.1" xmlns:xlink="http://www.w3.org/1999/xlink" xmlns:svgjs="http://svgjs.com/svgjs" width="512" height="512" x="0" y="0" viewBox="0 0 24 24" style="enable-background:new 0 0 512 512" xml:space="preserve" class=""><g><path d="M20 14h-3a3 3 0 0 0-3 3v3a1 1 0 0 0 2 0v-3a1 1 0 0 1 1-1h3a1 1 0 0 0 0-2zM9 21a1 1 0 0 0 1-1v-3a3 3 0 0 0-3-3H4a1 1 0 0 0 0 2h3a1 1 0 0 1 1 1v3a1 1 0 0 0 1 1zM20 8h-3a1 1 0 0 1-1-1V4a1 1 0 0 0-2 0v3a3 3 0 0 0 3 3h3a1 1 0 0 0 0-2zM10 4a1 1 0 0 0-2 0v3a1 1 0 0 1-1 1H4a1 1 0 0 0 0 2h3a3 3 0 0 0 3-3z" fill="#ffffff" data-original="#000000" class="" opacity="1"></path></g></svg>