<svg width="512" height="512" viewBox="0 0 512 512" fill="none" xmlns="http://www.w3.org/2000/svg">
<path opacity="0.985" fill-rule="evenodd" clip-rule="evenodd" d="M103.24 84.0593C191.397 83.9012 279.553 84.0593 367.709 84.5332C395.899 90.6045 412.487 107.825 417.474 136.195C418.107 174.427 418.107 212.66 417.474 250.893C413.289 263.497 404.601 268.395 391.407 265.585C385.396 263.998 381.13 260.364 378.61 254.684C377.362 218.088 376.731 181.435 376.714 144.726C376.095 136.069 371.829 129.907 363.917 126.242C321.145 125.145 278.33 124.671 235.474 124.82C193.924 124.978 152.373 125.135 110.823 125.294C102.859 127.254 97.6457 132.151 95.1824 139.986C94.5504 203.813 94.5504 267.64 95.1824 331.466C97.6457 339.301 102.859 344.198 110.823 346.158C147.476 346.474 184.128 346.791 220.781 347.106C233.833 352.199 238.416 361.52 234.526 375.07C232.174 381.068 227.908 385.017 221.729 386.919C182.232 387.551 142.737 387.551 103.24 386.919C74.8637 380.028 58.2752 362.176 53.474 333.362C52.842 268.271 52.842 203.181 53.474 138.091C58.4514 109.262 75.04 91.2511 103.24 84.0593Z" fill="white"/>
<path opacity="0.995" fill-rule="evenodd" clip-rule="evenodd" d="M127.892 144.728C134.605 143.915 140.925 145.021 146.85 148.046C169.442 170.637 192.034 193.23 214.626 215.822C214.942 208.238 215.258 200.655 215.574 193.072C219.791 181.91 227.849 177.012 239.746 178.379C247.324 180.269 252.537 184.85 255.387 192.124C256.019 218.981 256.019 245.839 255.387 272.697C252.521 279.988 247.307 284.569 239.746 286.441C214.784 287.074 189.822 287.074 164.86 286.441C151.347 282.974 145.818 274.285 148.272 260.374C150.262 253.645 154.527 249.063 161.069 246.629C168.91 245.488 176.81 244.855 184.767 244.733C162.491 222.457 140.215 200.181 117.938 177.905C110.474 163.496 113.791 152.436 127.892 144.728Z" fill="white"/>
<path opacity="0.994" fill-rule="evenodd" clip-rule="evenodd" d="M307.988 285.966C340.85 285.807 373.712 285.966 406.571 286.44C433.611 291.677 450.515 307.634 457.285 334.309C458.786 354.184 459.101 374.091 458.233 394.028C453.428 422.847 436.839 440.699 408.467 447.586C374.342 448.218 340.217 448.218 306.092 447.586C279.187 441.852 262.599 425.579 256.327 398.768C255.427 376.294 255.743 353.86 257.274 331.466C265.403 306.429 282.307 291.263 307.988 285.966Z" fill="white"/>
</svg>
