<svg xmlns="http://www.w3.org/2000/svg" version="1.1" xmlns:xlink="http://www.w3.org/1999/xlink" xmlns:svgjs="http://svgjs.com/svgjs" width="512" height="512" x="0" y="0" viewBox="0 0 28 28" style="enable-background:new 0 0 512 512" xml:space="preserve" class=""><g><path fill="#ffffff" d="M9 19H5.5A3.504 3.504 0 0 1 2 15.5v-7A3.504 3.504 0 0 1 5.5 5h13A3.504 3.504 0 0 1 22 8.5V10a1 1 0 0 1-2 0V8.5A1.502 1.502 0 0 0 18.5 7h-13A1.502 1.502 0 0 0 4 8.5v7A1.502 1.502 0 0 0 5.5 17H9a1 1 0 0 1 0 2zm17 1.5v-5a2.503 2.503 0 0 0-2.5-2.5h-9a2.503 2.503 0 0 0-2.5 2.5v5a2.503 2.503 0 0 0 2.5 2.5h9a2.503 2.503 0 0 0 2.5-2.5z" data-original="#0a0b12" opacity="1" class=""></path></g></svg>