<svg width="512" height="433" viewBox="0 0 512 433" fill="none" xmlns="http://www.w3.org/2000/svg">
<g clip-path="url(#clip0_743_32)">
<rect x="29" y="29" width="430" height="334" rx="80" stroke="white" stroke-width="40"/>
<path opacity="0.995" fill-rule="evenodd" clip-rule="evenodd" d="M128.713 104.959C136.13 104.062 143.112 105.282 149.659 108.622C174.62 133.565 199.581 158.51 224.542 183.453C224.891 175.08 225.24 166.707 225.589 158.335C230.249 146.011 239.151 140.603 252.296 142.113C260.668 144.2 266.428 149.258 269.576 157.288C270.275 186.941 270.275 216.595 269.576 246.248C266.41 254.298 260.65 259.357 252.296 261.424C224.717 262.122 197.137 262.122 169.558 261.424C154.627 257.595 148.519 248.002 151.23 232.642C153.428 225.214 158.141 220.155 165.369 217.467C174.032 216.207 182.76 215.509 191.552 215.374C166.94 190.779 142.328 166.184 117.716 141.589C109.468 125.68 113.134 113.47 128.713 104.959Z" fill="white"/>
<rect x="258" y="271" width="270" height="178" rx="65" fill="white"  stroke-width="50"/>
<circle cx="233" cy="363" r="20" fill="white"/>
<circle cx="459" cy="246" r="20" fill="white"/>
</g>
<defs>
<clipPath id="clip0_743_32">
<rect width="512" height="433" fill="white"/>
</clipPath>
</defs>
</svg>
