<svg xmlns="http://www.w3.org/2000/svg" version="1.1" xmlns:xlink="http://www.w3.org/1999/xlink" xmlns:svgjs="http://svgjs.com/svgjs" width="512" height="512" x="0" y="0" viewBox="0 0 512 512" style="enable-background:new 0 0 512 512" xml:space="preserve" class=""><g transform="matrix(0.9600000000000002,0,0,0.9600000000000002,10.239999999999952,10.239999999999952)"><path d="M480 128c0-13.255-10.745-24-24-24H56c-13.255 0-24 10.745-24 24v38c0 5.523 4.477 10 10 10h428c5.523 0 10-4.477 10-10zM440 62V24c0-13.255-10.745-24-24-24H96C82.745 0 72 10.745 72 24v38c0 5.523 4.477 10 10 10h348c5.523 0 10-4.477 10-10zM488 208H24c-13.255 0-24 10.745-24 24v256c0 13.255 10.745 24 24 24h464c13.255 0 24-10.745 24-24V232c0-13.255-10.745-24-24-24z" fill="#ffffff" data-original="#000000" class="" opacity="1"></path></g></svg>